PathFileType	4	(X/Y/Z)	48_2_51_p1_0-273.trc
DataRate	CameraRate	NumFrames	NumMarkers	Units	OrigDataRate	OrigDataStartFrame	OrigNumFrames
55.0	55.0	5	27	m	55.0	68	274
Frame#	Time	RHip			RKnee			RAnkle			RBigToe			RSmallToe			RHeel			LHip			LKnee			LAnkle			LBigToe			LSmallToe			LHeel			Neck			Head			Nose			RShoulder			RElbow			RWrist			RThumb			RIndex			RPinky			LShoulder			LElbow			LWrist			LThumb			LIndex			LPinky			
		X1	Y1	Z1	X2	Y2	Z2	X3	Y3	Z3	X4	Y4	Z4	X5	Y5	Z5	X6	Y6	Z6	X7	Y7	Z7	X8	Y8	Z8	X9	Y9	Z9	X10	Y10	Z10	X11	Y11	Z11	X12	Y12	Z12	X13	Y13	Z13	X14	Y14	Z14	X15	Y15	Z15	X16	Y16	Z16	X17	Y17	Z17	X18	Y18	Z18	X19	Y19	Z19	X20	Y20	Z20	X21	Y21	Z21	X22	Y22	Z22	X23	Y23	Z23	X24	Y24	Z24	X25	Y25	Z25	X26	Y26	Z26	X27	Y27	Z27	
68	1.2363636363636363	0.2015701852517379	0.3958031296373693	0.6564042091569957	0.18568291521461514	0.5258004525064744	1.0875997314154349	0.15983902842006958	0.6780804666418632	1.5249581988692849	0.09425959039722044	0.4632560632105805	1.5443690677405488	0.1669067181516074	0.4702242992720481	1.551406550296064	0.1421122891672506	0.7902226053154799	1.589682619461681	-0.026309139640559236	0.41200780476139676	0.6371948879335696	-0.03529782787294619	0.584251343148046	1.090667838274051	-0.05228125766739673	0.6876007704231619	1.490884345033257	-0.06354452094415225	0.4668818484013336	1.5178173503562757	-0.12265328753715118	0.5434681525369233	1.5429645459317884	-0.04124091742054722	0.7158493452162513	1.551318634414678	0.13325407307531464	0.34101429266771877	0.03179049218874068	0.1493890490654423	0.1710088408597537	-0.21915185265707368	0.13041361576526714	0.13619457051071443	-0.06602919879765841	0.3099267767704876	0.3533556707169291	0.1361347525716836	0.34406678362227394	0.39761289157525986	0.3842870367450477	0.23221395047220414	0.1571680758245121	0.42588294342461513	0.1400903895778118	0.011405682846191794	0.4017716583572828	0.1466911164619954	-0.0014364825181211324	0.4239755353167676	0.1581652198790619	0.05434647734582623	0.4613799539664066	-0.058725208448026645	0.3994990742786773	0.0857507089038355	-0.11844780164998431	0.46355422644094957	0.37966191143810535	-0.13809089684831974	0.42401761521155235	0.6486217427462249	-0.10449706169702389	0.4600375352529387	0.7616939931104089	-0.1365919807553433	0.42493478372856114	0.7879315256582806	-0.1698408025026877	0.48180716994585443	0.7855606416901033
69	1.2545454545454546	0.2009822529897398	0.39461107882581936	0.652580821835144	0.1907595483960887	0.5388948550788675	1.0917648243561024	0.1598648160356641	0.6781090999775253	1.5250994942148985	0.09936634458258084	0.47566948967767325	1.5508909196054543	0.17221161162332577	0.4829427708687032	1.5575609580509062	0.14081073509951286	0.7911117159183731	1.5943473192278899	-0.026924089160022167	0.41037080716571805	0.6365774084484601	-0.03867296901421214	0.5995755748643611	1.095240457849398	-0.05229266634694715	0.6878212554938596	1.4908896031939365	-0.06279325361954151	0.4688639366207905	1.5232796268063822	-0.12262042389063521	0.5435035131429148	1.5430237310255916	-0.04137065178379297	0.7159626490738793	1.551787094652973	0.1332521392068175	0.34081918572558373	0.03186088972839871	0.1451042138290137	0.17068796830851368	-0.21900587064087892	0.13046093570497297	0.13616679705767465	-0.06579115666492684	0.3046328110867062	0.342652581003332	0.13267535523622806	0.34513100972809113	0.38409058859431616	0.39518202450615275	0.23019204464256005	0.15436254317464831	0.411332774654753	0.13754253183574303	0.013109800001772797	0.3735779343686478	0.13917356471916842	-0.012988091443809484	0.37960111986349754	0.15709692844770726	0.053563470065916	0.4500735529797123	-0.05893162802440276	0.399743749420636	0.08931056916970835	-0.11890357777448846	0.4622723643364558	0.3758837799166812	-0.1381672153642627	0.4238190869376383	0.6486315205282018	-0.10132526378095948	0.4611121746407044	0.7659752327667633	-0.136620359278176	0.42484309804242565	0.7882420603369339	-0.17021939240563397	0.4816106850435738	0.785573396584311
70	1.2727272727272727	0.2008573809453395	0.394411316646769	0.6527710230134279	0.19176129319514895	0.5381324774136205	1.0873324982179058	0.1599314053247176	0.678205699538059	1.5251628509839816	0.09426965247741843	0.46294264825999343	1.5443357250354237	0.1671722763082544	0.47001419504902286	1.5509734694185375	0.1421031659476713	0.79060846389063	1.58981053495259	-0.031251613141531416	0.3986547676217317	0.6342637924100436	-0.03864087840488347	0.5999734581864875	1.095320897115128	-0.051476848457105095	0.6898976421647016	1.496773649059591	-0.06283008186788713	0.46869265602855414	1.5231461075274952	-0.12264229894188722	0.5434726302796808	1.5428914400954035	-0.040531497087130774	0.7182531500706034	1.5569511265858424	0.133290738266276	0.3408683882441446	0.03190752007112514	0.14921949402006648	0.18018757423351037	-0.21992810895937975	0.13062261381788265	0.1368327672549953	-0.06266942430071058	0.30463294209301234	0.3425178675401436	0.13588520217100494	0.3456263224602033	0.38446239223209794	0.39175633129743737	0.22546080906191102	0.15372408790027076	0.39724447846524524	0.12821811823431847	-0.006997024090930751	0.3541061435466952	0.13530017581937823	-0.005567003943818095	0.3678873239552797	0.15050970672602068	0.06447840867381903	0.43660355655619115	-0.05893042225777496	0.39961922760148955	0.08926051497356326	-0.12321404705840468	0.4499725533208991	0.3739394942861714	-0.142003560410179	0.41083931429937437	0.64603766916725	-0.10046057315907078	0.46113087278927944	0.7585477599572782	-0.1362140684705658	0.42303169896498793	0.7801778333508429	-0.1706922589151666	0.4779092444581984	0.7804188571481314
71	1.290909090909091	0.19889616168734925	0.40820329972931957	0.6513489114141613	0.1857309962460716	0.5266385808204798	1.0832403822888823	0.15986207886488418	0.6780994902561228	1.52491591959345	0.09915818075006604	0.47554978855536234	1.5515278285829646	0.1718805108918621	0.48273089191403795	1.5579489572972103	0.14201982264403612	0.7899858204085111	1.5894595031754395	-0.031905630505373594	0.39858566210648105	0.6379687447728294	-0.038649722387292716	0.5999163889824601	1.0952570961351458	-0.051448312740023844	0.6897363693229103	1.4967211394720057	-0.06270361079203958	0.46868100634640136	1.523194252874883	-0.11832787476518618	0.5434722720239256	1.5431951483225355	-0.04067525767567853	0.7180208562230063	1.5570804766841866	0.13331988622031685	0.34084134491655416	0.031875168067606215	0.1493159627803372	0.1801463871627457	-0.21983376810451877	0.13074312334735338	0.13680038984590587	-0.06250801377195468	0.2994542949964969	0.33226194795106434	0.13570529483864266	0.344986659246205	0.3832529721864303	0.39577812459033795	0.2200339825179757	0.1419605221346447	0.3853775522036174	0.12855096067271204	-0.017060861036349788	0.3231657925583193	0.13540447153124013	-0.013729436066403923	0.35339162913003236	0.14778602926449202	0.06500915673259494	0.3934751623734196	-0.0589858933027659	0.39953563253987034	0.0893684843198577	-0.12650009684759966	0.4375468097037657	0.3732275223795109	-0.14553985172111933	0.39866123945214804	0.6436644960441353	-0.1037165872671161	0.4595915817302261	0.7543277440748132	-0.13973301647613298	0.41135113460706824	0.7771201183928023	-0.17012713936975588	0.4756101992500967	0.7790710287772855
72	1.309090909090909	0.19650923986729393	0.383375962282697	0.6424146027294677	0.18649784689591817	0.5249101285942545	1.0828657110519297	0.1587101514091279	0.6759384950585896	1.5190924826121006	0.09154459632510316	0.4779537698694584	1.5551034321410229	0.16731762883855059	0.4693930186187647	1.5545365010135324	0.14181319240302534	0.7889199235537178	1.5926721536459758	-0.031410843104598324	0.39844513111885915	0.6343042920569567	-0.03865893962702499	0.5997691916519253	1.095197430699595	-0.05225248258099334	0.6875374775056198	1.490727427018391	-0.06450624223414697	0.46735037358512604	1.5212831649796787	-0.11831189295996064	0.5435562888122577	1.54307342952901	-0.03470016124497143	0.7176451281934759	1.5472637220649146	0.1333379868560215	0.3410655768740582	0.03192853794222675	0.15343231518293715	0.18092229691667924	-0.21970623796747699	0.1307601309121826	0.13663741229238788	-0.0624924681714297	0.30459192088310405	0.3424021415861723	0.13272495201402534	0.3341383139474615	0.3715264424357921	0.4044019495762451	0.2199097564136346	0.14158139672677783	0.38162342995298837	0.1354744345489054	-0.009031143453783653	0.3053677057325169	0.1371680965233879	-0.01672751011213483	0.3106003322425889	0.14353957761081912	0.07433349817440602	0.37948732852236716	-0.05867254015244549	0.4003770799175645	0.09253158580710089	-0.12678251578376104	0.43631310798734474	0.36574173301173496	-0.14901277975409202	0.4113962346848109	0.645814695474685	-0.10784848952125677	0.4584445627226834	0.7536857882101674	-0.13671587564650625	0.4211055773503504	0.7760559409500304	-0.1704763002794362	0.44923871846383234	0.7731498270812844
